<svg width="24" height="24" fill="none" xmlns="http://www.w3.org/2000/svg"><path fill-rule="evenodd" clip-rule="evenodd" d="M3.6 3.6a1.2 1.2 0 000 2.4v9.6A2.4 2.4 0 006 18h3.103L7.55 19.552a1.2 1.2 0 101.697 1.697L12 18.497l2.751 2.752a1.2 1.2 0 101.697-1.697L14.897 18H18a2.4 2.4 0 002.4-2.4V6a1.2 1.2 0 000-2.4H3.6zm14.048 5.65a1.2 1.2 0 10-1.697-1.697L12 11.503l-1.552-1.551a1.2 1.2 0 00-1.697 0l-2.4 2.4a1.2 1.2 0 101.697 1.697L9.6 12.497l1.551 1.552a1.2 1.2 0 001.697 0l4.8-4.8z" fill="#fff"/></svg>