<svg width="40" height="40" fill="none" xmlns="http://www.w3.org/2000/svg"><path d="M16.06 22.273a1.5 1.5 0 10-2.12 2.121l2.12-2.121zm2.274 4.394l-1.061 1.06a1.5 1.5 0 002.121 0l-1.06-1.06zm7.727-5.606a1.5 1.5 0 00-2.122-2.122l2.122 2.122zm4.106-9.394v20h3v-20h-3zM28.333 33.5H11.668v3h16.666v-3zm-18.5-1.833v-20h-3v20h3zm1.834-21.834H15v-3h-3.333v3zm13.333 0h3.334v-3H25v3zM11.667 33.5a1.833 1.833 0 01-1.833-1.833h-3a4.833 4.833 0 004.833 4.833v-3zm18.5-1.833a1.834 1.834 0 01-1.834 1.833v3a4.833 4.833 0 004.834-4.833h-3zm3-20a4.833 4.833 0 00-4.834-4.834v3c1.013 0 1.834.821 1.834 1.834h3zm-23.334 0c0-1.013.821-1.834 1.834-1.834v-3a4.833 4.833 0 00-4.833 4.834h3zm4.107 12.727l3.333 3.333 2.121-2.121-3.333-3.333-2.121 2.121zm5.454 3.333l6.667-6.666-2.122-2.122-6.666 6.667 2.121 2.121zM18.334 6.5h3.333v-3h-3.334v3zm3.333 3.667h-3.334v3h3.334v-3zm-3.334 0A1.833 1.833 0 0116.5 8.333h-3a4.833 4.833 0 004.834 4.834v-3zM23.5 8.333c0 1.013-.82 1.834-1.833 1.834v3A4.833 4.833 0 0026.5 8.333h-3zM21.667 6.5c1.012 0 1.833.82 1.833 1.833h3A4.833 4.833 0 0021.667 3.5v3zm-3.334-3A4.833 4.833 0 0013.5 8.333h3c0-1.012.821-1.833 1.834-1.833v-3z" fill="#fff"/></svg>