<svg width="140" height="66" fill="none" xmlns="http://www.w3.org/2000/svg"><path d="M68.145 35.985l4.577 2.37a10.782 10.782 0 01-3.599 3.01c-1.442.756-3.016 1.135-4.722 1.135-1.914 0-3.661-.471-5.242-1.415a10.82 10.82 0 01-3.765-3.785C54.464 35.706 54 33.946 54 32.02c0-1.461.27-2.823.811-4.085a10.627 10.627 0 012.226-3.347 10.446 10.446 0 013.328-2.271 10.076 10.076 0 014.036-.817c1.706 0 3.28.379 4.722 1.136a10.59 10.59 0 013.599 3.048l-4.576 2.351a5.075 5.075 0 00-1.727-1.235 4.883 4.883 0 00-2.018-.439 4.8 4.8 0 00-2.704.797 5.63 5.63 0 00-1.914 2.072 5.655 5.655 0 00-.707 2.79 5.729 5.729 0 002.62 4.841c.805.519 1.707.778 2.705.778.721 0 1.408-.147 2.06-.439a5.436 5.436 0 001.684-1.215zM84.96 42.5c-1.914 0-3.662-.471-5.243-1.415a10.819 10.819 0 01-3.765-3.785c-.929-1.594-1.394-3.354-1.394-5.28 0-1.461.27-2.823.812-4.085a10.627 10.627 0 012.226-3.347 10.446 10.446 0 013.328-2.271 10.076 10.076 0 014.036-.817c1.913 0 3.654.471 5.22 1.415a10.543 10.543 0 013.766 3.805c.943 1.594 1.415 3.36 1.415 5.3 0 1.448-.27 2.803-.812 4.064a10.753 10.753 0 01-2.246 3.348 10.364 10.364 0 01-3.308 2.251c-1.248.545-2.593.817-4.035.817zm0-4.861c1.012 0 1.92-.26 2.725-.778a5.504 5.504 0 001.893-2.052c.471-.85.707-1.78.707-2.79 0-1.035-.243-1.978-.728-2.828a5.415 5.415 0 00-1.935-2.052 4.818 4.818 0 00-2.662-.777c-.999 0-1.9.259-2.705.777a5.627 5.627 0 00-1.913 2.072 5.768 5.768 0 00-.708 2.809c0 1.05.243 1.999.728 2.85a5.68 5.68 0 001.935 2.031 5.078 5.078 0 002.663.737zm26.618-1.654l4.577 2.37a10.787 10.787 0 01-3.599 3.01c-1.442.756-3.016 1.135-4.722 1.135-1.914 0-3.661-.471-5.242-1.415a10.821 10.821 0 01-3.766-3.785c-.929-1.594-1.393-3.354-1.393-5.28 0-1.461.27-2.823.811-4.085a10.625 10.625 0 012.226-3.347 10.446 10.446 0 013.328-2.271 10.076 10.076 0 014.036-.817c1.706 0 3.28.379 4.722 1.136a10.594 10.594 0 013.599 3.048l-4.577 2.351a5.075 5.075 0 00-1.726-1.235 4.886 4.886 0 00-2.018-.439c-.999 0-1.9.266-2.704.797a5.62 5.62 0 00-1.914 2.072 5.65 5.65 0 00-.707 2.79 5.723 5.723 0 002.621 4.841c.804.519 1.705.778 2.704.778.721 0 1.408-.147 2.059-.439a5.428 5.428 0 001.685-1.215zm23.346-13.927H140v19.924h-5.076l-.229-2.47a6.674 6.674 0 01-2.267 2.171c-.929.545-2.032.817-3.308.817-1.539 0-2.981-.279-4.326-.837a11.417 11.417 0 01-3.558-2.311 11.067 11.067 0 01-2.392-3.407 10.16 10.16 0 01-.853-4.144c0-1.421.271-2.756.812-4.005a10.282 10.282 0 012.309-3.287 10.856 10.856 0 013.411-2.212c1.29-.531 2.677-.797 4.161-.797 1.373 0 2.6.292 3.682.877a9.393 9.393 0 012.787 2.231l-.229-2.55zm-5.928 15.76c1.081 0 2.038-.26 2.87-.777a5.479 5.479 0 001.956-2.092c.471-.89.707-1.866.707-2.93 0-1.075-.236-2.051-.707-2.928a5.395 5.395 0 00-1.976-2.112c-.833-.518-1.783-.777-2.85-.777a5.607 5.607 0 00-2.934.797 5.974 5.974 0 00-2.101 2.092c-.513.877-.769 1.853-.769 2.929 0 1.076.263 2.052.79 2.929a5.974 5.974 0 002.101 2.092 5.678 5.678 0 002.913.777z" fill="#101010"/><circle cx="21" cy="30.5" r="21" fill="#101010"/><path d="M27.448 35.441l4.552 2.3c-1.11 1.442-2.52 2.596-4.234 3.461-1.696.865-3.54 1.298-5.53 1.298-2.252 0-4.307-.539-6.167-1.617a12.55 12.55 0 01-4.43-4.326C10.548 34.735 10 32.724 10 30.523c0-1.67.318-3.226.954-4.668a12.127 12.127 0 012.619-3.826 12.31 12.31 0 013.915-2.595 12.153 12.153 0 014.748-.934c1.99 0 3.834.433 5.53 1.298 1.713.865 3.125 2.027 4.234 3.484l-4.552 2.3a6.875 6.875 0 00-2.398-1.731 6.81 6.81 0 00-2.814-.615c-1.338 0-2.553.342-3.646 1.025a7.452 7.452 0 00-2.57 2.664c-.62 1.093-.93 2.292-.93 3.598 0 1.29.318 2.49.954 3.598a7.51 7.51 0 002.57 2.64c1.093.669 2.3 1.003 3.622 1.003a6.766 6.766 0 002.887-.638 7.227 7.227 0 002.325-1.685z" fill="#fff"/></svg>